<svg width="885" height="228" viewBox="0 0 885 228" fill="none" xmlns="http://www.w3.org/2000/svg">
<g clip-path="url(#clip0_194_3027)">
<path d="M2.61894 157.354H206.891V164.589C206.891 199.55 178.564 227.892 143.621 227.892H56.8506C26.8993 227.892 2.61894 203.599 2.61894 173.632V157.354Z" fill="#9381FF"/>
<path d="M87.8008 157.354C87.8008 175.441 80.1943 195.265 74.9278 207.093C67.881 222.918 62.5416 227.892 54.4069 227.892C23.6756 227.892 6.05035 203.927 2.43472 189.006C0.30451 182.074 0.0719663 174.456 0.175072 167.215C0.174445 168.081 0.17568 166.374 0.175072 167.215C-0.121778 162.331 -0.399976 158.414 0.677226 157.354C1.70283 157.356 15.5493 157.354 15.5493 157.354H87.8008Z" fill="#DFC8A3"/>
<path d="M44.1965 138.363C44.1965 115.888 62.4068 97.6681 84.8703 97.6681H166.218C188.681 97.6681 206.891 115.888 206.891 138.363V157.354C206.891 184.824 184.634 207.093 157.179 207.093H76.7355C58.7647 207.093 44.1965 192.517 44.1965 174.537V138.363Z" fill="#B8B8FF"/>
<path d="M88.4857 157.354C88.4857 169.683 88.4857 178.154 81.2548 193.528C75.8317 205.284 75.8317 205.284 74.9278 207.093C44.2731 207.093 6.9389 189.1 3.33229 178.929C1.20738 174.204 -0.109194 169.04 -0.00634524 164.104C-0.0069707 164.695 -0.00573818 163.531 -0.00634524 164.104C-0.302455 160.775 -0.397292 158.077 0.677226 157.354C1.70027 157.355 16.4142 157.354 16.4142 157.354H88.4857Z" fill="#EEE1CD"/>
<path d="M44.1965 138.363C44.1965 115.888 62.4068 97.6681 84.8703 97.6681H166.218V130.224C166.218 145.208 154.078 157.354 139.102 157.354H44.1965V138.363Z" fill="#9381FF"/>
<path d="M184.295 0C187.256 2.96303 187.245 7.71815 187.91 11.7563C188.08 12.7601 188.187 15.2439 188.362 16.278C189.732 25.2602 190.809 34.3421 190.622 43.4081C189.981 42.7587 186.763 40.4597 186.103 39.7907C183.614 37.302 181.812 34.7566 179.211 32.3865C178.36 31.6089 177.51 30.8314 176.633 30.0303C174.364 27.9569 174.364 27.9569 171.641 26.2257C172.096 21.015 173.588 17.1642 175.991 12.5476C176.301 11.924 176.612 11.3003 176.932 10.6577C178.76 7.06816 181.131 3.16517 184.295 0Z" fill="#DFC7A2"/>
<path d="M63.1988 0C60.2373 2.96303 60.2483 7.71815 59.5833 11.7563C59.4132 12.7601 59.3067 15.2439 59.1314 16.278C57.7621 25.2602 56.6849 34.3421 56.8717 43.4081C57.5126 42.7587 60.7308 40.4597 61.3911 39.7907C63.8793 37.302 65.6812 34.7566 68.283 32.3865C69.1335 31.6089 69.9841 30.8314 70.8604 30.0303C73.1299 27.9569 73.1299 27.9569 75.8528 26.2257C75.3973 21.015 73.906 17.1642 71.503 12.5476C71.1925 11.924 70.882 11.3003 70.5621 10.6577C68.7339 7.06816 66.3623 3.16517 63.1988 0Z" fill="#DFC7A2"/>
<path d="M190.728 43.4081C173.103 47.0254 151.396 67.1195 141.228 88.0596C137.363 96.9429 134.539 107.124 134.586 116.818C134.591 118.388 134.591 118.388 134.595 119.989C134.607 121.614 134.607 121.614 134.618 123.272C134.622 124.373 134.626 125.474 134.631 126.609C134.641 129.321 134.567 132.033 134.586 134.746C135.182 134.746 134.872 134.746 135.486 134.746C138.198 132.937 138.819 131.343 139.928 129.602C151.965 111.596 169.751 100.132 190.714 94.9551C196.11 93.8866 201.543 93.0485 206.984 92.2421C207.344 74.1588 201.78 57.6724 190.728 43.4081Z" fill="#EEE1CD"/>
<path d="M123.736 10.5761C130.126 10.5761 138.088 11.1866 143.996 12.9747C147.768 13.9326 150.561 14.1823 154.079 12.3742C154.841 11.8356 155.603 11.297 156.388 10.7421C165.045 4.92448 173.674 -0.144839 184.295 0.00316164C183.704 0.875721 183.704 0.875721 183.102 1.76591C174.94 13.1492 174.94 13.1492 172.545 26.2289C174.271 28.0714 174.271 28.0714 176.612 29.6201C181.274 33.1151 187.138 38.7146 190.622 43.4081C190.622 42.7931 190.622 44.0049 190.622 43.4081C190.622 43.4081 186.785 44.4394 185.739 44.9691C178.41 48.7315 171.547 52.4269 165.314 57.8806C164.353 58.6342 164.353 58.6342 163.372 59.4031C147.723 72.1765 138.439 92.4674 135.487 112.141C135.362 113.898 135.267 115.658 135.201 117.418C135.166 118.286 135.132 119.154 135.096 120.048C135.057 121.132 135.018 122.215 134.978 123.332C134.848 126.801 134.717 131.175 134.583 134.749H123.736L123.736 10.5761Z" fill="#B8B8FF"/>
<path d="M123.736 10.5761C117.409 10.5761 109.385 11.1866 103.477 12.9747C99.7044 13.9326 96.9114 14.1823 93.3933 12.3742C92.6313 11.8356 91.8693 11.297 91.0842 10.7421C82.4271 4.92448 73.7984 -0.144839 63.1775 0.00316164C63.7682 0.875721 63.7682 0.875721 64.3709 1.76591C72.5325 13.1492 72.5325 13.1492 74.9277 26.2289C73.2014 28.0714 73.2014 28.0714 70.8603 29.6201C66.1984 33.1151 60.3348 38.7146 56.8506 43.4081C56.8506 42.7931 56.8506 44.0049 56.8506 43.4081C56.8506 43.4081 60.6878 44.4394 61.7334 44.9691C69.0627 48.7315 75.9255 52.4269 82.1586 57.8806C83.1198 58.6342 83.1198 58.6342 84.1005 59.4031C99.7499 72.1765 109.034 92.4674 111.986 112.141C112.111 113.898 112.206 115.658 112.272 117.418C112.306 118.286 112.341 119.154 112.376 120.048C112.415 121.132 112.454 122.215 112.494 123.332C112.625 126.801 112.755 131.175 112.89 134.749H123.736L123.736 10.5761Z" fill="#B8B8FF"/>
<path d="M56.8528 43.4081C74.4781 47.0254 96.1852 67.1195 106.353 88.0596C110.218 96.9429 113.042 107.124 112.995 116.818C112.99 118.388 112.99 118.388 112.986 119.989C112.974 121.614 112.974 121.614 112.963 123.272C112.959 124.373 112.955 125.474 112.951 126.609C112.94 129.321 112.909 132.033 112.89 134.746H111.986C109.275 132.033 108.762 131.343 107.653 129.602C95.6159 111.596 77.8304 100.132 56.867 94.9551C51.4709 93.8866 46.038 93.0485 40.5975 92.2421C40.2373 74.1588 45.8013 57.6724 56.8528 43.4081Z" fill="#EEE1CD"/>
<path d="M85.9443 75.3134C87.7521 77.122 87.7521 77.122 88.0345 80.2307C87.7521 83.4524 87.7521 83.4524 86.7917 85.261C83.9306 86.7385 81.7412 86.0321 78.7135 85.261C76.7656 82.3377 76.4822 81.4163 76.9057 78.0264C79.0215 74.4152 82.1232 74.9658 85.9443 75.3134Z" fill="#504740"/>
<path d="M168.196 75.3134C170.003 77.122 170.003 77.122 170.286 80.2307C170.003 83.4524 170.003 83.4524 169.043 85.261C166.182 86.7385 163.993 86.0321 160.965 85.261C159.017 82.3377 158.734 81.4163 159.157 78.0264C161.273 74.4152 164.375 74.9658 168.196 75.3134Z" fill="#504740"/>
<path d="M135.486 134.746C135.486 137.877 135.129 138.399 134.326 139.568C134.201 139.75 134.066 139.947 133.92 140.172C133.681 140.435 132.837 141.193 131.986 141.957C131.123 142.733 130.253 143.515 130.003 143.789C127.722 145.963 126.72 146.502 123.736 146.502C120.752 146.502 119.751 145.963 117.469 143.789C117.22 143.515 116.35 142.733 115.486 141.957C114.636 141.193 113.791 140.435 113.553 140.172C113.406 139.947 113.271 139.75 113.147 139.568C112.344 138.399 111.986 137.877 111.986 134.746H135.486Z" fill="#4C4039"/>
<path d="M317.49 71.4587C345.329 71.4587 367.973 94.1067 367.973 121.947C367.973 149.786 345.325 172.434 317.485 172.434C306.747 172.434 296.788 169.053 288.598 163.316V198.353C288.598 204.317 283.762 209.151 277.799 209.151C271.835 209.151 267 204.316 267 198.353V82.2605C267 76.2965 271.835 71.4616 277.799 71.4616C283.221 71.4616 287.698 75.4627 288.468 80.6721C296.685 74.8783 306.694 71.4587 317.49 71.4587ZM317.49 150.831C333.419 150.831 346.377 137.872 346.377 121.944C346.377 106.015 333.418 93.0563 317.49 93.0563C301.562 93.0563 288.603 106.015 288.603 121.944C288.603 137.872 301.562 150.831 317.49 150.831ZM467.862 71.4587C473.826 71.4587 478.661 76.294 478.661 82.2575V161.901C478.661 167.865 473.825 172.7 467.862 172.7C462.418 172.7 457.928 168.669 457.183 163.431C448.936 169.261 438.885 172.7 428.04 172.7C400.126 172.7 377.419 149.993 377.419 122.079C377.419 94.1657 400.126 71.4587 428.04 71.4587C438.885 71.4587 448.935 74.8982 457.183 80.7282C457.928 75.4891 462.418 71.4587 467.862 71.4587ZM428.04 151.102C444.043 151.102 457.063 138.083 457.063 122.079C457.063 106.076 444.043 93.0563 428.04 93.0563C412.036 93.0563 399.017 106.076 399.017 122.079C399.017 138.083 412.036 151.102 428.04 151.102ZM538.851 71.4587C544.815 71.4587 549.649 76.294 549.649 82.2575C549.649 88.221 544.814 93.0563 538.851 93.0563C522.848 93.0563 509.828 106.076 509.828 122.079V161.901C509.828 167.865 504.992 172.7 499.029 172.7C493.065 172.7 488.23 167.865 488.23 161.901V82.2575C488.23 76.2936 493.065 71.4587 499.029 71.4587C504.473 71.4587 508.963 75.4908 509.708 80.7282C517.954 74.898 528.006 71.4587 538.851 71.4587ZM599.896 71.4587C627.81 71.4587 650.517 94.1657 650.517 122.079C650.517 149.993 627.81 172.7 599.896 172.7C571.983 172.7 549.276 149.993 549.276 122.079C549.276 94.1657 571.983 71.4587 599.896 71.4587ZM599.896 151.102C615.899 151.102 628.919 138.083 628.919 122.079C628.919 106.076 615.9 93.0563 599.896 93.0563C583.893 93.0563 570.873 106.076 570.873 122.079C570.873 138.083 583.893 151.102 599.896 151.102ZM711.519 151.102C717.482 151.102 722.318 155.938 722.318 161.902C722.318 167.865 717.483 172.7 711.519 172.7C683.161 172.7 660.087 149.628 660.087 121.268V45.8096C660.087 39.8456 664.922 35.0107 670.886 35.0107C676.849 35.0107 681.685 39.846 681.685 45.8096V121.268C681.685 137.718 695.068 151.102 711.519 151.102ZM773.548 151.102C779.512 151.102 784.347 155.938 784.347 161.902C784.347 167.865 779.512 172.7 773.548 172.7C745.19 172.7 722.116 149.628 722.116 121.268V45.8096C722.116 39.8456 726.951 35.0107 732.915 35.0107C738.879 35.0107 743.714 39.846 743.714 45.8096V121.268C743.714 137.718 757.097 151.102 773.548 151.102ZM874.587 71.4587C880.551 71.4587 885.386 76.294 885.386 82.2575V161.901C885.386 167.865 880.551 172.7 874.587 172.7C869.143 172.7 864.654 168.669 863.909 163.431C855.662 169.261 845.611 172.7 834.766 172.7C806.852 172.7 784.145 149.993 784.145 122.079C784.145 94.1657 806.852 71.4587 834.766 71.4587C845.611 71.4587 855.661 74.8982 863.909 80.7282C864.654 75.4891 869.143 71.4587 874.587 71.4587ZM834.766 151.102C850.769 151.102 863.789 138.083 863.789 122.079C863.789 106.076 850.769 93.0563 834.766 93.0563C818.762 93.0563 805.743 106.076 805.743 122.079C805.743 138.083 818.762 151.102 834.766 151.102Z" fill="#9381FF"/>
</g>
<defs>
<clipPath id="clip0_194_3027">
<rect width="885" height="228" fill="white"/>
</clipPath>
</defs>
</svg>
